{"glyphs":{"0":{"ha":765,"x_min":43,"x_max":722,"o":"m 722 496 q 704 281 722 376 q 644 121 685 187 q 538 21 603 56 q 382 -14 473 -14 q 232 21 296 -14 q 126 121 168 56 q 63 281 84 187 q 43 496 43 376 q 61 711 43 616 q 121 871 80 806 q 226 972 161 937 q 382 1007 290 1007 q 531 972 467 1007 q 637 872 595 938 q 701 711 680 806 q 722 496 722 616 m 252 496 q 281 241 252 326 q 382 155 310 155 q 483 240 452 155 q 514 496 514 325 q 483 752 514 666 q 382 838 452 838 q 321 816 346 838 q 281 751 296 794 q 258 645 265 709 q 252 496 252 581 z "},"1":{"ha":765,"x_min":62,"x_max":554,"o":"m 554 0 l 345 0 l 345 574 q 345 616 345 591 q 346 668 345 641 q 348 722 347 694 q 350 771 349 749 q 338 759 347 767 q 320 741 330 751 q 299 721 310 731 q 278 703 288 711 l 164 611 l 62 737 l 382 991 l 554 991 l 554 0 z "},"2":{"ha":765,"x_min":53,"x_max":721,"o":"m 721 0 l 56 0 l 56 146 l 289 397 q 369 485 333 445 q 431 563 405 525 q 471 640 456 601 q 485 725 485 680 q 455 803 485 775 q 374 831 425 831 q 271 804 320 831 q 167 729 221 778 l 53 864 q 117 917 83 892 q 190 962 150 943 q 278 994 230 982 q 386 1006 326 1006 q 514 986 457 1006 q 610 930 570 966 q 672 842 650 894 q 693 726 693 791 q 673 615 693 668 q 617 510 652 562 q 535 409 582 459 q 436 306 489 358 l 317 186 l 317 176 l 721 176 l 721 0 z "},"3":{"ha":765,"x_min":39,"x_max":711,"o":"m 682 770 q 666 677 682 718 q 620 605 649 636 q 552 554 591 574 q 468 522 513 533 l 468 518 q 650 445 588 503 q 711 289 711 387 q 688 169 711 224 q 616 73 665 113 q 494 9 568 32 q 321 -14 420 -14 q 170 0 241 -14 q 39 40 100 13 l 39 218 q 103 190 69 202 q 171 169 137 178 q 238 157 205 161 q 300 153 271 153 q 397 163 358 153 q 458 194 435 174 q 491 241 481 214 q 501 301 501 269 q 489 356 501 332 q 448 398 476 381 q 374 425 420 416 q 262 435 329 435 l 192 435 l 192 582 l 261 582 q 365 593 323 582 q 431 624 406 604 q 466 669 456 643 q 476 724 476 694 q 443 806 476 777 q 339 836 410 836 q 278 830 307 836 q 226 813 250 823 q 182 792 202 804 q 146 768 162 780 l 40 908 q 102 947 68 929 q 175 978 136 964 q 260 998 214 991 q 357 1006 305 1006 q 490 990 430 1006 q 593 944 550 974 q 659 870 635 913 q 682 770 682 826 z "},"4":{"ha":765,"x_min":3,"x_max":736,"o":"m 736 205 l 616 205 l 616 0 l 412 0 l 412 205 l 3 205 l 3 351 l 424 991 l 616 991 l 616 368 l 736 368 l 736 205 m 412 368 l 412 536 q 413 562 412 545 q 414 600 413 578 q 415 643 414 621 q 417 686 416 665 q 419 721 418 706 q 421 743 420 736 l 415 743 q 388 683 403 715 q 353 619 372 651 l 187 368 l 412 368 z "},"5":{"ha":765,"x_min":58,"x_max":707,"o":"m 406 633 q 524 614 469 633 q 620 556 579 594 q 684 461 661 518 q 707 332 707 405 q 682 187 707 251 q 608 78 656 123 q 487 10 559 34 q 321 -14 414 -14 q 247 -10 283 -14 q 177 0 210 -7 q 113 16 143 6 q 58 40 83 26 l 58 221 q 113 196 82 208 q 178 175 144 184 q 245 162 212 167 q 310 157 279 157 q 448 194 401 157 q 496 314 496 232 q 449 426 496 387 q 306 464 403 464 q 268 462 288 464 q 229 456 248 460 q 192 449 210 453 q 161 441 174 446 l 78 486 l 115 991 l 639 991 l 639 814 l 297 814 l 281 619 q 331 629 302 624 q 406 633 360 633 z "},"6":{"ha":765,"x_min":52,"x_max":724,"o":"m 52 421 q 59 563 52 492 q 87 698 67 633 q 141 819 107 763 q 228 915 176 874 q 354 980 281 956 q 526 1003 428 1003 q 557 1002 541 1003 q 592 1001 574 1002 q 625 998 609 1000 q 654 993 642 996 l 654 825 q 600 835 629 831 q 542 839 571 839 q 391 816 450 839 q 298 753 332 793 q 249 655 263 712 q 231 529 234 598 l 239 529 q 272 575 252 553 q 317 611 291 596 q 375 635 342 627 q 447 644 407 644 q 563 623 511 644 q 650 562 614 602 q 705 464 686 522 q 724 330 724 406 q 701 186 724 250 q 636 78 678 122 q 534 10 594 33 q 400 -14 475 -14 q 263 13 327 -14 q 152 92 199 39 q 78 228 105 146 q 52 421 52 309 m 396 154 q 447 164 424 154 q 486 196 469 175 q 512 250 503 218 q 521 328 521 283 q 491 442 521 400 q 399 484 460 484 q 342 471 368 484 q 298 439 316 459 q 270 395 279 420 q 260 346 260 371 q 268 277 260 311 q 294 215 277 243 q 337 171 311 188 q 396 154 362 154 z "},"7":{"ha":765,"x_min":37,"x_max":721,"o":"m 140 0 l 493 814 l 37 814 l 37 990 l 721 990 l 721 859 l 359 0 l 140 0 z "},"8":{"ha":765,"x_min":49,"x_max":717,"o":"m 383 1004 q 500 989 445 1004 q 596 945 555 975 q 662 870 637 915 q 686 765 686 825 q 673 684 686 720 q 635 618 659 648 q 579 566 612 589 q 509 524 547 543 q 586 477 548 503 q 652 419 623 451 q 699 347 682 387 q 717 257 717 307 q 692 145 717 195 q 624 60 668 95 q 518 5 580 24 q 383 -14 457 -14 q 241 5 303 -14 q 136 57 178 23 q 71 140 93 91 q 49 252 49 190 q 64 343 49 302 q 104 416 79 384 q 165 474 130 449 q 239 518 199 499 q 176 564 205 539 q 126 619 147 589 q 92 686 104 649 q 79 766 79 722 q 104 870 79 825 q 171 944 129 914 q 268 989 213 975 q 383 1004 323 1004 m 243 264 q 252 214 243 237 q 278 175 260 191 q 321 150 295 159 q 380 140 347 140 q 487 174 452 140 q 522 262 522 208 q 510 314 522 291 q 480 356 498 336 q 437 391 461 375 q 390 422 414 408 l 375 432 q 321 400 345 417 q 279 362 296 382 q 252 317 262 341 q 243 264 243 292 m 382 851 q 340 844 359 851 q 307 825 321 838 q 285 793 293 812 q 277 750 277 774 q 285 701 277 722 q 308 664 294 680 q 342 636 323 648 q 383 611 361 623 q 423 635 404 622 q 457 664 442 648 q 480 702 471 681 q 489 750 489 723 q 481 793 489 774 q 458 825 473 812 q 425 844 444 838 q 382 851 405 851 z "},"9":{"ha":765,"x_min":43,"x_max":715,"o":"m 715 568 q 708 426 715 497 q 680 291 700 355 q 626 171 660 227 q 539 74 591 115 q 413 10 486 33 q 240 -14 339 -14 q 209 -13 226 -14 q 175 -11 192 -12 q 141 -8 157 -10 q 113 -4 125 -7 l 113 164 q 166 154 138 157 q 225 150 195 150 q 376 173 317 150 q 469 236 435 195 q 518 334 504 277 q 536 460 533 391 l 528 460 q 495 414 514 435 q 450 378 476 393 q 392 353 425 362 q 319 345 359 345 q 203 366 255 345 q 116 427 152 387 q 62 525 81 467 q 43 659 43 583 q 65 803 43 739 q 130 911 88 867 q 232 979 172 956 q 367 1003 292 1003 q 504 977 440 1003 q 614 897 568 951 q 688 762 661 844 q 715 568 715 680 m 371 835 q 320 825 343 835 q 280 793 297 814 q 255 739 264 772 q 245 661 245 706 q 276 547 245 589 q 368 505 307 505 q 425 517 399 505 q 469 549 451 530 q 497 593 488 569 q 507 643 507 618 q 499 712 507 677 q 473 773 490 746 q 430 818 456 801 q 371 835 405 835 z "},"\u0001":{"ha":434,"x_min":0,"x_max":0,"o":""}," ":{"ha":434,"x_min":0,"x_max":0,"o":""},"!":{"ha":397,"x_min":79,"x_max":317,"o":"m 282 329 l 117 329 l 82 991 l 317 991 l 282 329 m 79 97 q 89 151 79 129 q 114 186 98 173 q 152 206 130 200 q 199 212 174 212 q 244 206 222 212 q 281 186 265 200 q 307 151 298 173 q 317 97 317 129 q 307 45 317 66 q 281 9 298 23 q 244 -12 265 -5 q 199 -18 222 -18 q 152 -12 174 -18 q 114 9 130 -5 q 89 45 98 23 q 79 97 79 66 z "},"\"":{"ha":656,"x_min":90,"x_max":566,"o":"m 279 991 l 252 633 l 118 633 l 90 991 l 279 991 m 566 991 l 538 633 l 404 633 l 376 991 l 566 991 z "},"#":{"ha":897,"x_min":31,"x_max":867,"o":"m 677 572 l 646 415 l 821 415 l 821 275 l 619 275 l 567 0 l 418 0 l 471 275 l 339 275 l 288 0 l 142 0 l 192 275 l 31 275 l 31 415 l 218 415 l 250 572 l 79 572 l 79 714 l 275 714 l 328 990 l 476 990 l 424 714 l 558 714 l 611 990 l 757 990 l 704 714 l 867 714 l 867 572 l 677 572 m 366 415 l 498 415 l 530 572 l 397 572 l 366 415 z "},"$":{"ha":765,"x_min":66,"x_max":720,"o":"m 720 310 q 702 216 720 259 q 648 140 684 172 q 559 86 612 107 q 437 58 507 65 l 437 -81 l 345 -81 l 345 56 q 262 61 300 57 q 191 73 224 65 q 127 91 157 80 q 68 114 97 101 l 68 293 q 130 266 96 279 q 199 242 163 253 q 272 224 235 232 q 345 215 309 217 l 345 431 q 333 435 339 433 q 322 439 328 437 q 313 443 317 441 q 205 492 251 467 q 128 550 159 518 q 82 621 97 582 q 66 708 66 659 q 86 801 66 759 q 141 873 105 842 q 229 923 177 904 q 345 949 280 943 l 345 1055 l 437 1055 l 437 953 q 558 936 496 949 q 688 893 620 922 l 619 734 q 527 766 575 752 q 437 783 479 780 l 437 585 l 464 575 q 576 526 528 551 q 656 470 625 501 q 704 400 688 439 q 720 310 720 361 m 515 306 q 511 334 515 322 q 497 357 507 347 q 473 375 488 367 q 437 393 458 384 l 437 222 q 496 249 477 229 q 515 306 515 269 m 271 713 q 288 660 271 681 q 345 624 306 638 l 345 782 q 289 762 308 778 q 271 713 271 745 z "},"%":{"ha":1223,"x_min":43,"x_max":1181,"o":"m 214 694 q 229 566 214 608 q 278 524 244 524 q 327 566 311 524 q 343 694 343 608 q 278 864 343 864 q 229 822 244 864 q 214 694 214 781 m 514 696 q 500 564 514 623 q 457 466 486 506 q 383 405 428 426 q 277 383 338 383 q 175 405 219 383 q 102 466 132 426 q 58 564 73 506 q 43 696 43 623 q 56 827 43 769 q 99 924 70 884 q 172 985 127 964 q 277 1006 216 1006 q 379 985 335 1006 q 454 924 424 964 q 499 827 484 884 q 514 696 514 769 m 966 991 l 416 0 l 254 0 l 804 991 l 966 991 m 880 298 q 896 170 880 212 q 945 127 911 127 q 994 170 978 127 q 1010 298 1010 212 q 945 468 1010 468 q 896 426 911 468 q 880 298 880 385 m 1181 300 q 1167 169 1181 227 q 1124 71 1153 111 q 1050 9 1095 31 q 943 -12 1005 -12 q 842 9 886 -12 q 769 71 799 31 q 725 169 740 111 q 710 300 710 227 q 724 431 710 373 q 766 528 737 488 q 838 589 794 568 q 943 610 882 610 q 1046 589 1002 610 q 1120 528 1090 568 q 1165 431 1150 488 q 1181 300 1181 373 z "},"&":{"ha":1003,"x_min":56,"x_max":1000,"o":"m 1000 0 l 745 0 l 679 68 q 559 8 625 31 q 415 -14 494 -14 q 268 7 334 -14 q 154 64 201 27 q 81 153 107 101 q 56 268 56 205 q 68 361 56 320 q 104 435 81 402 q 160 496 127 469 q 233 547 193 523 q 190 607 208 578 q 161 664 172 636 q 145 721 150 692 q 140 779 140 749 q 161 874 140 832 q 219 945 182 916 q 307 990 256 975 q 419 1006 358 1006 q 527 991 477 1006 q 611 950 576 977 q 667 882 647 922 q 688 790 688 842 q 672 704 688 743 q 631 632 657 665 q 571 571 606 599 q 496 519 536 543 l 672 338 q 714 432 696 382 q 745 532 732 481 l 960 532 q 936 450 949 493 q 903 365 922 408 q 861 279 885 321 q 808 197 838 236 l 1000 0 m 273 288 q 284 234 273 258 q 314 194 295 210 q 360 169 334 178 q 416 160 386 160 q 492 171 457 160 q 555 200 526 181 l 346 424 q 292 363 311 395 q 273 288 273 330 m 496 762 q 489 798 496 783 q 471 822 482 812 q 446 836 460 831 q 418 840 432 840 q 388 836 403 840 q 360 823 372 832 q 339 799 347 814 q 332 761 332 783 q 347 694 332 726 q 390 632 363 663 q 469 692 442 662 q 496 762 496 722 z "},"'":{"ha":370,"x_min":90,"x_max":279,"o":"m 279 991 l 252 633 l 118 633 l 90 991 l 279 991 z "},"(":{"ha":471,"x_min":56,"x_max":429,"o":"m 56 380 q 68 548 56 465 q 105 708 80 630 q 169 857 130 785 q 260 991 207 928 l 429 991 q 285 704 334 861 q 236 382 236 547 q 248 221 236 301 q 285 64 260 141 q 345 -84 309 -12 q 428 -220 381 -156 l 260 -220 q 169 -89 207 -159 q 105 57 130 -19 q 68 215 80 134 q 56 380 56 296 z "},")":{"ha":471,"x_min":41,"x_max":415,"o":"m 415 380 q 403 215 415 296 q 366 57 391 134 q 302 -89 340 -19 q 211 -220 264 -159 l 43 -220 q 125 -84 90 -156 q 186 64 161 -12 q 222 221 210 141 q 235 382 235 301 q 186 704 235 547 q 41 991 137 861 l 211 991 q 302 857 264 928 q 366 708 340 785 q 403 548 391 630 q 415 380 415 465 z "},"*":{"ha":757,"x_min":43,"x_max":714,"o":"m 467 1055 l 439 806 l 692 876 l 714 705 l 484 689 l 635 488 l 481 406 l 375 618 l 282 407 l 122 488 l 272 689 l 43 707 l 69 876 l 317 806 l 289 1055 l 467 1055 z "},"+":{"ha":765,"x_min":60,"x_max":705,"o":"m 309 415 l 60 415 l 60 564 l 309 564 l 309 814 l 457 814 l 457 564 l 705 564 l 705 415 l 457 415 l 457 168 l 309 168 l 309 415 z "},",":{"ha":403,"x_min":43,"x_max":311,"o":"m 311 146 q 289 68 302 109 q 259 -16 275 26 q 226 -99 243 -58 q 192 -179 209 -141 l 43 -179 q 63 -93 53 -138 q 82 -4 73 -48 q 98 83 91 41 q 111 161 106 125 l 301 161 l 311 146 z "},"-":{"ha":447,"x_min":41,"x_max":406,"o":"m 41 288 l 41 457 l 406 457 l 406 288 l 41 288 z "},".":{"ha":396,"x_min":79,"x_max":317,"o":"m 79 97 q 89 151 79 129 q 114 186 98 173 q 152 206 130 200 q 199 212 174 212 q 244 206 222 212 q 281 186 265 200 q 307 151 298 173 q 317 97 317 129 q 307 45 317 66 q 281 9 298 23 q 244 -12 265 -5 q 199 -18 222 -18 q 152 -12 174 -18 q 114 9 130 -5 q 89 45 98 23 q 79 97 79 66 z "},"/":{"ha":574,"x_min":9,"x_max":567,"o":"m 567 991 l 197 0 l 9 0 l 379 991 l 567 991 z "},":":{"ha":396,"x_min":79,"x_max":317,"o":"m 79 97 q 89 151 79 129 q 114 186 98 173 q 152 206 130 200 q 199 212 174 212 q 244 206 222 212 q 281 186 265 200 q 307 151 298 173 q 317 97 317 129 q 307 45 317 66 q 281 9 298 23 q 244 -12 265 -5 q 199 -18 222 -18 q 152 -12 174 -18 q 114 9 130 -5 q 89 45 98 23 q 79 97 79 66 m 79 657 q 89 711 79 689 q 114 747 98 733 q 152 766 130 760 q 199 772 174 772 q 244 766 222 772 q 281 747 265 760 q 307 711 298 733 q 317 657 317 689 q 307 605 317 627 q 281 569 298 583 q 244 548 265 555 q 199 542 222 542 q 152 548 174 542 q 114 569 130 555 q 89 605 98 583 q 79 657 79 627 z "},";":{"ha":403,"x_min":43,"x_max":317,"o":"m 301 161 l 311 146 q 289 68 302 109 q 259 -16 275 26 q 226 -99 243 -58 q 192 -179 209 -141 l 43 -179 q 63 -93 53 -138 q 82 -4 73 -48 q 98 83 91 41 q 111 161 106 125 l 301 161 m 79 657 q 89 711 79 689 q 114 747 98 733 q 152 766 130 760 q 199 772 174 772 q 244 766 222 772 q 281 747 265 760 q 307 711 298 733 q 317 657 317 689 q 307 605 317 627 q 281 569 298 583 q 244 548 265 555 q 199 542 222 542 q 152 548 174 542 q 114 569 130 555 q 89 605 98 583 q 79 657 79 627 z "},"<":{"ha":765,"x_min":60,"x_max":705,"o":"m 705 138 l 60 435 l 60 532 l 705 868 l 705 705 l 269 490 l 705 300 l 705 138 z "},"=":{"ha":765,"x_min":60,"x_max":705,"o":"m 60 547 l 60 694 l 705 694 l 705 547 l 60 547 m 60 283 l 60 432 l 705 432 l 705 283 l 60 283 z "},">":{"ha":765,"x_min":60,"x_max":705,"o":"m 60 300 l 496 490 l 60 705 l 60 868 l 705 532 l 705 435 l 60 138 l 60 300 z "},"?":{"ha":637,"x_min":17,"x_max":600,"o":"m 179 329 l 179 379 q 186 442 179 414 q 208 495 193 470 q 245 545 222 521 q 301 595 269 569 q 349 635 330 617 q 381 670 369 652 q 399 706 393 687 q 404 750 404 725 q 378 814 404 789 q 298 839 352 839 q 198 819 252 839 q 86 771 144 800 l 17 921 q 80 953 46 938 q 152 980 115 968 q 227 999 189 992 q 301 1006 264 1006 q 426 989 370 1006 q 520 941 481 972 q 579 863 559 909 q 600 760 600 818 q 591 683 600 717 q 563 621 581 650 q 516 565 544 592 q 450 509 488 538 q 404 470 422 486 q 376 438 386 453 q 362 407 366 423 q 358 370 358 391 l 358 329 l 179 329 m 157 97 q 166 151 157 129 q 191 186 175 173 q 230 206 208 200 q 277 212 252 212 q 322 206 300 212 q 359 186 343 200 q 385 151 376 173 q 395 97 395 129 q 385 45 395 66 q 359 9 376 23 q 322 -12 343 -5 q 277 -18 300 -18 q 230 -12 252 -18 q 191 9 208 -5 q 166 45 175 23 q 157 97 157 66 z "},"@":{"ha":1203,"x_min":69,"x_max":1135,"o":"m 1135 510 q 1119 382 1135 446 q 1073 270 1104 319 q 995 189 1042 220 q 884 158 947 158 q 835 164 858 158 q 793 183 812 171 q 761 211 774 195 q 739 245 747 227 l 729 245 q 699 213 716 229 q 661 184 682 197 q 615 165 640 172 q 559 158 589 158 q 459 177 503 158 q 386 232 416 197 q 340 318 356 268 q 325 428 325 368 q 346 556 325 498 q 406 657 367 614 q 502 723 446 699 q 628 746 558 746 q 691 743 659 746 q 754 734 724 739 q 810 722 784 728 q 856 708 837 715 l 842 424 q 840 395 840 409 l 840 376 q 845 330 840 348 q 856 301 849 311 q 872 286 863 290 q 892 282 882 282 q 933 300 916 282 q 962 350 951 319 q 980 423 974 381 q 986 511 986 465 q 960 666 986 598 q 889 781 935 734 q 780 852 843 827 q 643 876 717 876 q 460 842 539 876 q 328 745 381 807 q 247 598 275 683 q 220 412 220 513 q 243 247 220 319 q 314 125 267 174 q 429 51 361 76 q 587 25 498 25 q 665 30 625 25 q 745 43 705 35 q 823 62 785 51 q 896 87 861 74 l 896 -43 q 754 -88 832 -71 q 589 -104 677 -104 q 369 -70 466 -104 q 206 31 273 -35 q 104 192 140 97 q 69 408 69 288 q 87 569 69 492 q 140 712 106 646 q 225 832 175 779 q 338 925 275 886 q 479 984 402 963 q 643 1004 555 1004 q 840 970 750 1004 q 996 872 930 936 q 1098 716 1061 808 q 1135 510 1135 625 m 482 425 q 508 316 482 349 q 576 282 534 282 q 626 295 605 282 q 660 333 646 309 q 680 390 673 357 q 689 465 687 424 l 697 615 q 665 621 684 618 q 628 623 647 623 q 560 606 588 623 q 515 561 532 589 q 490 497 498 533 q 482 425 482 462 z "},"ກ":{"ha":981,"x_min":56,"x_max":867,"o":"m 134 130 q 185 79 134 79 q 237 130 237 79 q 185 181 237 181 q 134 130 134 181 m 231 607 l 231 623 q 182 703 231 703 q 134 654 134 703 q 211 606 134 606 q 231 607 221 606 m 378 39 q 185 0 335 0 q 84 37 116 0 q 56 130 56 69 q 84 222 56 191 q 185 259 117 259 q 231 254 210 259 l 231 529 l 212 529 q 90 565 128 529 q 56 654 56 596 q 89 749 56 718 q 185 780 121 780 q 418 684 390 780 q 623 780 494 780 q 795 734 734 780 q 867 563 867 681 l 867 0 l 671 0 l 671 563 q 636 653 671 623 q 558 682 602 682 q 448 599 514 682 l 426 566 l 426 176 q 378 39 426 83 z "},"ຂ":{"ha":878,"x_min":100,"x_max":778,"o":"m 283 407 q 100 584 100 407 q 439 780 100 780 q 693 724 608 780 q 778 557 778 669 q 698 384 778 454 q 457 263 618 313 q 295 156 295 214 q 332 98 295 98 q 445 138 368 98 q 591 179 522 179 q 778 52 694 179 l 636 -7 q 544 81 570 81 q 460 41 517 81 q 300 0 402 0 q 149 39 199 0 q 100 156 100 78 q 308 338 100 281 q 550 442 517 395 q 583 557 583 490 q 530 651 583 620 q 439 682 477 682 q 265 584 265 682 l 265 583 q 297 610 278 600 q 351 624 323 624 q 425 515 425 624 q 411 461 425 487 q 371 421 397 435 q 283 407 345 407 m 334 562 q 316 555 325 562 q 303 538 308 549 q 298 515 298 528 q 303 492 298 503 q 316 476 307 481 q 334 470 324 470 q 352 476 343 470 q 365 492 360 481 q 370 515 370 503 q 365 538 370 528 q 351 555 359 549 q 334 562 342 562 z "},"ຄ":{"ha":892,"x_min":100,"x_max":778,"o":"m 441 227 q 473 129 473 194 q 440 32 473 64 q 322 0 408 0 q 168 42 235 0 q 100 200 100 83 l 100 271 q 244 420 100 371 q 100 563 100 465 q 181 724 100 669 q 439 780 266 780 q 690 718 606 780 q 778 522 778 653 l 778 0 l 583 0 l 583 522 q 548 645 583 608 q 439 682 514 682 q 330 653 365 682 q 295 563 295 625 q 405 468 295 468 l 425 468 q 459 422 459 468 q 425 377 459 377 l 405 377 q 295 271 295 377 l 295 239 q 368 259 326 259 q 441 227 408 259 m 387 89 q 401 130 401 102 q 390 167 401 154 q 351 181 377 181 q 299 130 299 181 q 317 87 299 99 q 351 79 330 79 q 387 89 374 79 z "},"ງ":{"ha":685,"x_min":56,"x_max":571,"o":"m 134 604 q 185 553 134 553 q 237 604 237 553 q 185 656 237 656 q 134 604 134 656 m 492 -207 q 453 -239 492 -207 q 203 -271 413 -271 q 56 -258 130 -271 l 56 -160 q 203 -174 130 -174 q 322 -139 280 -174 q 376 0 376 -96 l 376 522 q 280 687 376 669 q 315 604 315 656 q 184 475 315 475 q 56 604 56 475 q 283 780 56 780 q 571 522 571 780 l 571 0 q 492 -207 571 -142 z "},"ຈ":{"ha":916,"x_min":56,"x_max":802,"o":"m 416 353 q 467 401 467 354 q 418 446 467 446 q 366 400 368 446 l 366 397 q 415 353 366 353 l 416 353 m 765 39 q 562 0 722 0 q 414 71 443 0 q 401 134 401 102 q 419 209 401 172 q 454 282 454 279 q 396 269 439 269 l 392 269 q 309 309 337 277 q 277 398 279 341 l 277 405 q 307 488 277 456 q 401 532 338 521 l 404 532 q 509 505 471 532 q 552 434 543 481 q 559 368 559 399 q 541 273 559 316 q 511 143 511 203 q 562 98 511 98 q 606 139 606 98 l 606 544 q 554 649 606 616 q 432 682 503 682 q 288 649 324 682 q 251 545 251 616 l 56 545 q 140 721 56 662 q 429 780 224 780 q 802 544 802 780 l 802 136 q 765 39 802 73 z "},"ຊ":{"ha":878,"x_min":100,"x_max":814,"o":"m 334 562 q 316 555 325 562 q 303 538 308 549 q 298 515 298 528 q 303 492 298 503 q 316 476 307 481 q 334 470 324 470 q 352 476 343 470 q 365 492 360 481 q 370 515 370 503 q 365 538 370 528 q 351 555 359 549 q 334 562 342 562 m 283 407 q 100 584 100 407 q 439 780 100 780 q 693 724 608 780 q 778 557 778 669 q 698 384 778 454 q 457 263 618 313 q 295 156 295 214 q 332 98 295 98 q 445 152 368 98 q 607 207 522 207 q 734 165 692 207 q 778 34 778 121 l 778 -115 q 814 -210 778 -170 l 655 -271 q 583 -129 583 -203 l 583 34 q 550 109 583 109 q 460 55 517 109 q 300 0 402 0 q 149 39 199 0 q 100 156 100 78 q 308 338 100 281 q 550 442 517 395 q 583 557 583 490 q 530 651 583 620 q 439 682 477 682 q 265 584 265 682 l 265 583 q 297 610 278 600 q 351 624 323 624 q 425 515 425 624 q 411 461 425 487 q 371 421 397 435 q 283 407 345 407 z "},"ຍ":{"ha":926,"x_min":100,"x_max":812,"o":"m 441 553 q 368 521 408 521 q 295 541 326 521 l 295 509 q 405 423 295 423 l 425 423 q 459 378 459 423 q 425 332 459 332 l 405 332 q 295 217 295 332 q 330 126 295 155 q 466 98 365 98 q 579 135 541 98 q 616 258 616 172 l 616 780 l 812 780 l 812 258 q 726 63 812 127 q 466 0 640 0 q 181 56 266 0 q 100 217 100 111 q 210 380 100 335 q 100 509 100 429 l 100 580 q 171 745 100 696 q 317 780 222 780 q 440 748 408 780 q 473 651 473 715 q 441 553 473 586 m 387 691 q 351 701 374 701 q 317 693 330 701 q 299 650 299 681 q 351 599 299 599 q 390 613 377 599 q 401 650 401 626 q 387 691 401 678 z "},"ດ":{"ha":940,"x_min":114,"x_max":826,"o":"m 455 227 q 487 129 487 194 q 454 32 487 64 q 331 0 422 0 q 185 35 236 0 q 114 200 114 83 l 114 522 q 470 780 114 780 q 826 522 826 780 l 826 0 l 631 0 l 631 522 q 470 682 631 682 q 309 522 309 682 l 309 239 q 382 259 340 259 q 455 227 422 259 m 401 89 q 416 130 416 102 q 404 167 416 154 q 365 181 391 181 q 313 130 313 181 q 332 87 313 99 q 365 79 344 79 q 401 89 388 79 z "},"ຕ":{"ha":940,"x_min":114,"x_max":826,"o":"m 401 89 q 416 130 416 102 q 404 167 416 154 q 365 181 391 181 q 313 130 313 181 q 332 87 313 99 q 365 79 344 79 q 401 89 388 79 m 309 239 q 382 259 340 259 q 455 227 422 259 q 487 129 487 194 q 454 32 487 64 q 331 0 422 0 q 185 35 236 0 q 114 200 114 83 l 114 522 q 176 724 114 668 q 322 780 239 780 q 470 683 408 780 q 618 780 532 780 q 764 723 702 780 q 826 522 826 666 l 826 0 l 631 0 l 631 522 q 602 682 631 682 q 470 558 572 682 q 338 682 368 682 q 309 522 309 682 l 309 239 z "},"ຖ":{"ha":1015,"x_min":56,"x_max":937,"o":"m 471 181 q 420 130 420 181 q 471 79 420 79 q 522 130 522 79 q 471 181 522 181 m 231 607 l 231 623 q 182 703 231 703 q 134 654 134 703 q 211 606 134 606 q 231 607 221 606 m 705 563 q 671 653 705 623 q 578 682 636 682 q 448 599 514 682 l 426 566 l 426 254 q 471 259 446 259 q 572 222 540 259 q 601 130 601 191 q 572 37 601 69 q 471 0 541 0 q 279 39 321 0 q 231 176 231 83 l 231 529 l 212 529 q 90 565 128 529 q 56 654 56 596 q 89 749 56 718 q 185 780 121 780 q 418 684 390 780 q 644 780 494 780 q 834 730 768 780 q 901 563 901 681 l 901 -115 q 937 -210 901 -170 l 778 -271 q 705 -129 705 -203 l 705 563 z "},"ທ":{"ha":1189,"x_min":100,"x_max":1075,"o":"m 215 614 q 258 656 258 614 q 215 700 258 700 q 172 656 172 700 q 215 614 172 614 m 794 780 q 1075 532 1075 780 l 1075 0 l 880 0 l 880 532 q 794 682 880 682 q 709 532 709 682 l 709 233 q 404 0 709 0 q 100 233 100 0 q 178 473 100 368 q 224 540 205 508 q 131 570 162 541 q 100 656 100 599 q 131 749 100 718 q 225 780 163 780 q 365 749 330 780 q 399 656 399 718 q 347 454 399 571 q 295 233 295 338 q 404 98 295 98 q 513 233 513 98 l 513 532 q 794 780 513 780 z "},"ນ":{"ha":981,"x_min":56,"x_max":867,"o":"m 185 599 q 237 650 237 599 q 185 701 237 701 q 134 650 134 701 q 185 599 134 599 m 231 526 q 185 521 210 521 q 84 557 117 521 q 56 650 56 589 q 84 743 56 711 q 185 780 116 780 q 378 741 335 780 q 426 604 426 696 l 426 237 q 420 171 426 201 q 498 129 459 168 q 596 98 536 98 q 671 217 671 98 l 671 780 l 867 780 l 867 217 q 610 0 867 0 q 441 72 507 0 q 393 98 418 96 q 100 0 333 0 l 100 98 q 198 133 165 98 q 231 237 231 168 l 231 526 z "},"ບ":{"ha":892,"x_min":100,"x_max":778,"o":"m 210 612 q 252 656 252 612 q 210 699 252 699 q 169 656 169 699 q 210 612 169 612 m 126 572 q 100 656 100 602 q 128 747 100 716 q 220 780 158 780 q 357 747 323 780 q 389 656 389 716 q 342 447 389 556 q 295 246 295 337 q 439 98 295 98 q 583 258 583 98 l 583 780 l 778 780 l 778 258 q 439 0 778 0 q 100 246 100 0 q 176 472 100 367 q 218 539 201 507 q 126 572 156 540 z "},"ປ":{"ha":892,"x_min":100,"x_max":807,"o":"m 210 612 q 252 656 252 612 q 210 699 252 699 q 169 656 169 699 q 210 612 169 612 m 583 746 q 669 994 583 865 l 807 946 q 778 746 778 878 l 778 258 q 439 0 778 0 q 100 246 100 0 q 176 472 100 367 q 218 539 201 507 q 126 572 156 540 q 100 656 100 602 q 128 747 100 716 q 220 780 158 780 q 357 747 323 780 q 389 656 389 716 q 342 447 389 556 q 295 246 295 337 q 439 98 295 98 q 583 258 583 98 l 583 746 z "},"ຜ":{"ha":974,"x_min":114,"x_max":907,"o":"m 642 622 q 685 649 664 622 q 642 708 679 708 q 605 665 605 708 q 642 622 605 622 m 369 665 q 326 708 369 708 q 281 665 281 708 q 326 622 281 622 q 369 665 369 622 m 177 47 q 114 258 114 111 l 114 602 q 174 749 114 705 q 298 780 217 780 q 404 748 373 780 q 434 665 434 715 q 414 578 434 607 q 359 549 393 549 q 309 557 330 549 l 309 258 q 337 117 309 154 q 376 98 353 98 q 438 237 438 98 l 438 285 l 536 285 l 536 237 q 598 98 536 98 q 638 119 623 98 q 665 258 665 157 l 665 557 q 614 549 644 549 q 560 578 581 549 q 540 665 540 607 q 570 748 540 715 q 675 780 601 780 q 800 749 757 780 q 818 732 810 741 q 833 783 833 757 q 830 808 833 795 l 904 814 q 907 780 907 796 q 854 657 907 714 q 860 602 860 632 l 860 258 q 798 48 860 112 q 646 0 750 0 q 487 79 535 0 q 328 0 439 0 q 177 47 224 0 z "},"ຝ":{"ha":974,"x_min":114,"x_max":889,"o":"m 369 665 q 326 708 369 708 q 281 665 281 708 q 326 622 281 622 q 369 665 369 622 m 860 258 q 798 48 860 112 q 646 0 750 0 q 487 79 535 0 q 328 0 439 0 q 177 47 224 0 q 114 258 114 111 l 114 602 q 174 749 114 705 q 298 780 217 780 q 404 748 373 780 q 434 665 434 715 q 414 578 434 607 q 359 549 393 549 q 309 557 330 549 l 309 258 q 337 117 309 154 q 376 98 353 98 q 438 237 438 98 l 438 285 l 536 285 l 536 237 q 598 98 536 98 q 638 119 623 98 q 665 258 665 157 l 665 746 q 751 994 665 865 l 889 946 q 860 746 860 878 l 860 258 z "},"ພ":{"ha":1159,"x_min":100,"x_max":1045,"o":"m 210 612 q 252 656 252 612 q 210 699 252 699 q 169 656 169 699 q 210 612 169 612 m 168 53 q 100 246 100 114 q 176 472 100 367 q 218 539 201 507 q 124 575 153 540 q 100 656 100 604 q 135 753 100 723 q 241 780 165 780 q 354 743 320 780 q 389 642 389 706 q 342 447 389 556 q 295 246 295 337 q 368 98 295 98 q 475 237 475 98 l 475 780 l 670 780 l 670 237 q 764 98 670 98 q 850 246 850 98 l 850 780 l 1045 780 l 1045 246 q 978 54 1045 115 q 763 0 920 0 q 572 75 631 0 q 368 0 514 0 q 168 53 226 0 z "},"ຟ":{"ha":1159,"x_min":100,"x_max":1074,"o":"m 210 612 q 252 656 252 612 q 210 699 252 699 q 169 656 169 699 q 210 612 169 612 m 1045 246 q 978 54 1045 115 q 763 0 920 0 q 572 75 631 0 q 368 0 514 0 q 168 53 226 0 q 100 246 100 114 q 176 472 100 367 q 218 539 201 507 q 124 575 153 540 q 100 656 100 604 q 135 753 100 723 q 241 780 165 780 q 354 743 320 780 q 389 642 389 706 q 342 447 389 556 q 295 246 295 337 q 368 98 295 98 q 475 237 475 98 l 475 780 l 670 780 l 670 237 q 764 98 670 98 q 850 246 850 98 l 850 746 q 936 994 850 865 l 1074 946 q 1045 746 1045 878 l 1045 246 z "},"ມ":{"ha":981,"x_min":56,"x_max":867,"o":"m 165 107 q 207 149 207 107 q 165 191 207 191 q 123 149 123 191 q 165 107 123 107 m 426 237 q 420 171 426 201 q 498 129 459 168 q 596 98 536 98 q 671 217 671 98 l 671 780 l 867 780 l 867 217 q 610 0 867 0 q 441 72 507 0 q 393 98 418 96 q 229 0 333 0 q 56 149 56 0 q 165 259 56 259 q 231 244 205 259 l 231 780 l 426 780 l 426 237 z "},"ຢ":{"ha":926,"x_min":100,"x_max":841,"o":"m 351 701 q 317 693 330 701 q 299 650 299 681 q 351 599 299 599 q 390 613 377 599 q 401 650 401 626 q 387 691 401 678 q 351 701 374 701 m 812 258 q 726 63 812 127 q 466 0 640 0 q 181 56 266 0 q 100 217 100 111 q 210 380 100 335 q 100 509 100 429 l 100 580 q 171 745 100 696 q 317 780 222 780 q 440 748 408 780 q 473 651 473 715 q 441 553 473 586 q 368 521 408 521 q 295 541 326 521 l 295 509 q 405 423 295 423 l 425 423 q 459 378 459 423 q 425 332 459 332 l 405 332 q 295 217 295 332 q 330 126 295 155 q 466 98 365 98 q 579 135 541 98 q 616 258 616 172 l 616 746 q 703 994 616 865 l 841 946 q 812 746 812 878 l 812 258 z "},"ຣ":{"ha":878,"x_min":100,"x_max":778,"o":"m 312 279 q 280 268 294 279 q 267 240 267 256 q 280 210 267 222 q 312 198 294 198 q 342 210 329 198 q 355 240 355 222 q 342 268 355 256 q 312 279 329 279 m 439 0 q 180 49 260 0 q 100 185 100 98 q 153 302 100 262 q 271 341 205 341 q 391 313 360 341 q 421 240 421 285 q 394 163 421 189 q 312 138 366 138 q 439 98 351 98 q 543 125 504 98 q 583 230 583 153 q 531 341 583 288 q 289 422 479 394 q 100 597 100 450 q 420 780 100 780 q 778 643 626 780 l 680 528 q 425 682 527 682 q 295 597 295 682 q 455 494 295 528 q 696 397 614 460 q 778 230 778 333 q 693 52 778 104 q 439 0 608 0 z "},"ລ":{"ha":926,"x_min":100,"x_max":812,"o":"m 281 57 q 329 104 329 57 q 281 152 329 152 q 234 104 234 152 q 281 57 234 57 m 375 31 q 269 0 342 1 q 143 45 185 2 q 100 177 100 90 q 153 340 100 292 q 336 389 206 389 q 464 326 413 389 q 545 180 515 262 q 595 98 574 98 q 616 149 616 98 l 616 544 q 442 682 616 682 q 295 545 295 682 l 100 545 q 184 721 100 662 q 439 780 269 780 q 728 720 643 780 q 812 544 812 661 l 812 149 q 767 35 812 72 q 649 0 726 0 q 531 27 572 0 q 469 119 489 54 q 416 221 448 185 q 336 258 385 258 q 276 219 282 258 q 372 193 340 219 q 401 123 401 170 q 402 102 402 112 q 375 31 402 56 z "},"ວ":{"ha":926,"x_min":100,"x_max":812,"o":"m 272 302 q 266 299 272 302 q 253 283 260 296 q 246 258 246 271 q 253 232 246 244 q 271 213 259 220 q 297 207 283 207 q 323 213 311 207 q 342 232 335 220 q 349 258 349 244 q 341 283 349 271 q 322 302 334 296 q 297 309 310 309 q 272 302 284 309 m 100 529 q 456 780 100 780 q 812 522 812 780 l 812 258 q 727 64 812 129 q 456 0 642 0 q 184 64 269 0 q 100 258 100 129 q 117 323 100 292 q 169 371 134 354 q 297 387 203 387 q 360 371 330 387 q 409 323 391 354 q 427 258 427 292 q 410 193 427 224 q 362 145 393 162 q 326 132 345 136 q 456 98 395 98 q 616 258 616 98 l 616 522 q 456 682 616 682 q 295 529 295 682 l 100 529 z "},"ສ":{"ha":926,"x_min":100,"x_max":812,"o":"m 591 616 q 537 663 569 644 q 407 682 506 682 q 321 656 348 682 q 295 601 295 630 q 321 556 295 572 q 407 540 348 540 q 536 559 506 540 q 591 616 567 578 m 281 57 q 329 104 329 57 q 281 152 329 152 q 234 104 234 152 q 281 57 234 57 m 665 719 q 678 814 675 760 l 812 793 q 780 646 802 709 q 812 544 812 601 l 812 149 q 767 35 812 72 q 649 0 726 0 q 531 27 572 0 q 469 119 489 54 q 416 218 448 185 q 315 251 385 251 q 276 219 282 251 q 372 193 340 219 q 401 123 401 170 q 402 102 402 112 q 375 31 402 56 q 269 0 342 1 q 143 45 185 2 q 100 177 100 90 q 153 300 100 252 q 315 349 206 349 q 464 306 413 349 q 545 180 515 262 q 595 98 574 98 q 616 149 616 98 l 616 512 q 407 442 551 442 q 174 477 248 442 q 100 601 100 513 q 174 734 100 689 q 407 780 248 780 q 665 719 562 780 z "},"ຫ":{"ha":1292,"x_min":100,"x_max":1178,"o":"m 210 612 q 252 656 252 612 q 210 699 252 699 q 169 656 169 699 q 210 612 169 612 m 583 607 l 583 623 q 554 703 583 703 q 527 654 527 703 q 563 606 527 606 q 583 607 573 606 m 778 258 q 439 0 778 0 q 100 246 100 0 q 176 472 100 367 q 218 539 201 507 q 126 572 156 540 q 100 656 100 602 q 128 747 100 716 q 220 780 158 780 q 357 747 323 780 q 389 656 389 716 q 342 447 389 556 q 295 246 295 337 q 439 98 295 98 q 583 258 583 98 l 583 529 l 564 529 q 488 563 521 529 q 455 654 455 596 q 498 749 455 718 q 612 780 541 780 q 770 684 742 780 q 935 780 846 780 q 1106 734 1046 780 q 1178 563 1178 681 l 1178 0 l 983 0 l 983 563 q 955 660 983 637 q 890 682 927 682 q 800 599 866 682 l 778 566 l 778 258 z "},"ອ":{"ha":926,"x_min":100,"x_max":812,"o":"m 611 569 q 569 653 600 624 q 439 682 538 682 q 338 647 380 682 q 295 570 295 612 q 331 492 295 527 q 439 457 367 457 q 572 486 545 457 q 611 569 600 515 m 207 221 q 208 206 207 214 q 212 197 210 201 q 228 181 218 186 q 250 176 238 176 q 272 181 261 176 q 288 197 282 186 q 294 218 294 207 q 288 240 294 230 q 271 257 281 251 q 250 262 260 262 q 229 257 239 262 q 213 241 218 251 q 207 221 208 231 m 332 119 q 439 98 396 98 q 616 258 616 98 l 616 398 q 439 359 536 359 q 201 414 303 359 q 100 570 100 468 q 195 732 100 685 q 439 780 290 780 q 730 712 649 773 q 812 522 812 651 l 812 258 q 439 0 812 0 q 100 225 100 0 l 100 225 q 116 273 102 250 q 162 313 131 298 q 235 328 193 328 q 306 313 278 328 q 350 273 334 298 q 366 218 366 247 q 332 119 366 138 z "},"ຮ":{"ha":926,"x_min":100,"x_max":812,"o":"m 283 373 q 337 359 311 373 q 377 319 363 345 q 391 264 391 293 q 377 210 391 236 q 336 170 362 184 q 283 156 310 156 q 439 98 313 98 q 564 129 511 98 q 616 223 616 160 q 563 351 616 290 q 305 455 510 412 q 100 624 100 498 q 149 741 100 702 q 332 780 199 780 q 496 729 402 780 q 591 699 551 699 q 718 807 631 699 l 812 701 q 591 601 728 601 q 446 642 522 601 q 332 682 368 682 q 295 624 295 682 q 457 499 295 532 q 715 396 618 467 q 812 223 812 326 q 710 56 812 111 q 439 0 608 0 q 100 196 100 0 q 283 373 100 373 m 283 219 q 305 225 294 219 q 322 241 316 231 q 329 264 329 252 q 323 288 329 277 q 306 304 317 298 q 283 311 295 311 q 260 304 271 311 q 243 288 249 298 q 237 264 237 277 q 243 241 237 252 q 260 225 250 231 q 283 219 271 219 z "},"ຯ":{"ha":972,"x_min":100,"x_max":873,"o":"m 342 671 q 295 718 342 718 q 248 671 248 718 q 295 624 248 624 q 342 671 342 624 m 366 488 q 538 578 441 488 q 694 780 635 667 l 873 724 l 414 -276 l 237 -230 l 579 496 q 366 385 475 385 q 100 603 100 385 q 269 780 100 776 q 406 674 406 779 q 405 656 406 666 q 275 561 405 561 q 366 488 288 488 z "},"ະ":{"ha":836,"x_min":100,"x_max":736,"o":"m 242 260 q 221 254 231 260 q 204 238 210 248 q 199 216 199 227 q 204 194 199 204 q 220 178 210 183 q 242 172 231 172 q 264 178 254 172 q 281 194 275 183 q 287 216 287 204 q 280 238 287 227 q 263 254 274 248 q 242 260 253 260 m 336 161 q 405 121 348 121 q 493 165 456 121 q 541 311 530 210 l 736 311 q 614 95 718 161 q 371 30 510 30 q 178 76 256 30 q 100 216 100 123 q 114 270 100 244 q 155 310 129 296 q 242 324 180 324 q 295 310 269 324 q 336 270 321 296 q 351 216 351 244 q 336 161 351 187 m 242 682 q 221 676 231 682 q 204 660 210 670 q 199 637 199 649 q 204 615 199 626 q 220 600 210 605 q 242 594 231 594 q 264 600 254 594 q 281 615 275 605 q 287 637 287 626 q 280 660 287 649 q 263 676 274 670 q 242 682 253 682 m 336 583 q 405 543 348 543 q 493 587 456 543 q 541 732 530 631 l 736 732 q 614 517 718 583 q 371 452 510 452 q 178 498 256 452 q 100 637 100 545 q 114 692 100 666 q 155 732 129 718 q 242 746 180 746 q 295 732 269 746 q 336 692 321 718 q 351 637 351 666 q 336 583 351 609 z "},"ັ":{"ha":0,"x_min":-671,"x_max":-35,"o":"m -528 1072 q -550 1065 -539 1072 q -566 1049 -560 1059 q -572 1027 -572 1038 q -566 1005 -572 1015 q -550 989 -561 994 q -528 983 -540 983 q -506 989 -517 983 q -490 1005 -496 994 q -484 1027 -484 1015 q -490 1049 -484 1038 q -507 1065 -496 1059 q -528 1072 -517 1072 m -434 972 q -366 932 -422 932 q -277 976 -314 932 q -230 1122 -241 1021 l -35 1122 q -157 906 -53 972 q -399 841 -260 841 q -593 887 -515 841 q -671 1027 -671 934 q -656 1081 -671 1055 q -616 1121 -642 1107 q -528 1135 -590 1135 q -475 1121 -501 1135 q -434 1081 -449 1107 q -420 1027 -420 1055 q -434 972 -420 998 z "},"າ":{"ha":709,"x_min":100,"x_max":581,"o":"m 219 604 q 250 553 219 553 q 281 604 281 553 q 250 635 281 635 q 219 604 219 635 m 386 0 l 386 522 q 359 604 386 602 q 229 475 359 475 q 100 604 100 475 q 307 780 100 780 q 581 522 581 780 l 581 0 l 386 0 z "},"ຳ":{"ha":709,"x_min":-494,"x_max":581,"o":"m -338 1038 q -358 1034 -352 1038 q -372 1014 -364 1030 q -379 983 -379 998 q -372 953 -379 969 q -358 933 -364 937 q -338 929 -352 929 q -318 933 -324 929 q -305 953 -312 937 q -298 983 -298 969 q -305 1014 -298 998 q -318 1034 -312 1030 q -338 1038 -324 1038 m -338 1119 q -251 1101 -283 1119 q -201 1051 -219 1084 q -182 983 -182 1019 q -200 916 -182 948 q -250 866 -218 884 q -338 848 -283 848 q -426 866 -393 848 q -476 916 -458 884 q -494 983 -494 948 q -476 1051 -494 1019 q -425 1101 -458 1084 q -338 1119 -393 1119 m 219 604 q 250 553 219 553 q 281 604 281 553 q 250 635 281 635 q 219 604 219 635 m 386 0 l 386 522 q 359 604 386 602 q 229 475 359 475 q 100 604 100 475 q 307 780 100 780 q 581 522 581 780 l 581 0 l 386 0 z "},"ິ":{"ha":0,"x_min":-746,"x_max":-136,"o":"m -456 1049 q -570 1038 -544 1049 q -606 1008 -595 1027 q -611 994 -611 1000 q -600 974 -611 983 q -539 930 -581 960 l -580 876 q -589 877 -584 877 q -651 903 -626 891 q -701 932 -676 915 q -734 962 -726 949 q -746 997 -742 974 q -710 1055 -746 1023 q -611 1099 -673 1086 q -441 1112 -549 1112 q -270 1099 -332 1112 q -172 1055 -208 1086 q -136 997 -136 1023 q -147 962 -139 974 q -180 929 -155 949 q -230 898 -205 909 q -292 877 -255 886 q -300 876 -296 876 l -340 930 q -281 974 -300 960 q -270 994 -270 983 q -274 1008 -270 1000 q -311 1038 -286 1027 q -426 1049 -337 1049 l -456 1049 z "},"ີ":{"ha":0,"x_min":-726,"x_max":-115,"o":"m -361 932 q -311 977 -328 962 q -301 996 -301 985 q -305 1010 -301 1003 q -337 1042 -315 1030 q -444 1054 -359 1054 l -458 1054 q -564 1042 -542 1054 q -596 1010 -586 1030 q -600 996 -600 1003 q -590 977 -600 985 q -540 932 -574 962 l -575 876 q -585 877 -580 877 q -640 898 -617 886 q -685 928 -663 910 q -714 958 -707 945 q -726 1000 -722 971 q -693 1056 -726 1027 q -604 1101 -660 1086 q -451 1117 -548 1117 q -298 1101 -354 1117 q -209 1056 -241 1086 q -177 1000 -177 1027 q -188 964 -180 977 q -201 942 -191 956 l -115 942 l -115 876 l -361 876 l -361 932 z "},"ຶ":{"ha":0,"x_min":-746,"x_max":-136,"o":"m -441 1017 q -409 1013 -424 1017 q -386 999 -394 1008 q -377 980 -377 989 q -385 961 -377 970 q -408 947 -393 952 q -441 943 -423 943 q -472 947 -457 943 q -495 961 -487 952 q -504 980 -504 970 q -495 999 -504 989 q -472 1013 -487 1008 q -441 1017 -456 1017 m -456 1056 q -570 1045 -544 1056 q -606 1015 -595 1034 q -611 1001 -611 1007 q -600 981 -611 990 q -539 937 -581 967 l -580 883 q -589 884 -584 884 q -651 910 -626 898 q -701 939 -676 922 q -734 968 -726 956 q -746 1004 -742 981 q -710 1062 -746 1030 q -611 1106 -673 1093 q -441 1118 -549 1118 q -270 1106 -332 1118 q -172 1062 -208 1093 q -136 1004 -136 1030 q -147 968 -139 981 q -180 936 -155 956 q -230 905 -205 916 q -292 884 -255 893 q -300 883 -296 883 l -340 937 q -281 981 -300 967 q -270 1001 -270 990 q -274 1015 -270 1007 q -311 1045 -286 1034 q -426 1056 -337 1056 l -456 1056 z "},"ື":{"ha":0,"x_min":-726,"x_max":-115,"o":"m -448 1024 q -420 1019 -433 1024 q -399 1006 -407 1015 q -391 988 -391 997 q -399 970 -391 979 q -419 956 -406 961 q -448 951 -433 951 q -476 956 -463 951 q -496 970 -489 961 q -504 988 -504 979 q -496 1006 -504 997 q -475 1019 -489 1015 q -448 1024 -462 1024 m -361 939 q -311 983 -328 968 q -301 1003 -301 991 q -305 1017 -301 1010 q -337 1049 -315 1037 q -444 1061 -359 1061 l -458 1061 q -564 1049 -542 1061 q -596 1017 -586 1037 q -600 1003 -600 1010 q -590 983 -600 991 q -540 939 -574 968 l -575 883 q -585 884 -580 884 q -640 905 -617 893 q -685 935 -663 917 q -714 965 -707 952 q -726 1006 -722 978 q -693 1063 -726 1034 q -604 1108 -660 1093 q -451 1124 -548 1124 q -298 1108 -354 1124 q -209 1063 -241 1093 q -177 1006 -177 1034 q -188 970 -180 983 q -201 949 -191 962 l -115 949 l -115 883 l -361 883 l -361 939 z "},"ຸ":{"ha":0,"x_min":-388,"x_max":-182,"o":"m -315 -96 q -335 -119 -335 -96 q -315 -143 -335 -143 q -296 -119 -296 -143 q -315 -96 -296 -96 m -327 -196 q -351 -185 -336 -194 q -377 -158 -366 -176 q -388 -119 -388 -140 q -376 -80 -388 -98 q -344 -51 -364 -61 q -281 -41 -323 -41 q -226 -51 -246 -41 q -194 -80 -205 -61 q -182 -119 -182 -98 q -308 -305 -182 -251 l -379 -231 q -327 -196 -340 -224 z "},"ູ":{"ha":0,"x_min":-491,"x_max":-147,"o":"m -426 -93 q -429 -95 -426 -93 q -434 -102 -431 -96 q -437 -115 -437 -108 q -434 -127 -437 -121 q -427 -136 -431 -132 q -404 -140 -422 -139 q -395 -115 -395 -126 q -398 -102 -395 -108 q -406 -93 -401 -96 q -416 -90 -411 -90 q -426 -93 -421 -90 m -313 -159 q -320 -198 -320 -179 q -319 -214 -320 -206 q -289 -228 -314 -228 q -257 -150 -257 -228 l -257 -41 l -147 -41 l -147 -153 q -289 -285 -147 -285 q -412 -250 -395 -285 q -423 -211 -423 -229 q -417 -184 -423 -197 q -454 -174 -436 -184 q -482 -148 -473 -165 q -491 -113 -491 -131 q -482 -76 -491 -94 q -454 -50 -473 -59 q -388 -41 -435 -41 q -342 -50 -361 -41 q -313 -76 -323 -59 q -302 -113 -302 -94 q -313 -159 -302 -130 z "},"ົ":{"ha":0,"x_min":-671,"x_max":-35,"o":"m -528 905 q -507 911 -517 905 q -490 927 -496 917 q -484 949 -484 938 q -490 971 -484 961 q -506 987 -496 982 q -528 993 -517 993 q -550 987 -540 993 q -566 971 -561 982 q -572 949 -572 961 q -566 927 -572 938 q -550 911 -560 917 q -528 905 -539 905 m -434 1004 q -420 949 -420 978 q -434 895 -420 921 q -475 855 -449 869 q -528 841 -501 841 q -616 855 -590 841 q -656 895 -642 869 q -671 949 -671 921 q -593 1089 -671 1042 q -399 1135 -515 1135 q -157 1070 -260 1135 q -35 854 -53 1004 l -230 854 q -277 1000 -241 956 q -366 1044 -314 1044 q -434 1004 -422 1044 z "},"ຼ":{"ha":0,"x_min":-643,"x_max":-119,"o":"m -541 -150 l -541 -154 q -534 -171 -541 -165 q -514 -179 -527 -178 q -494 -172 -502 -179 q -487 -156 -487 -166 q -488 -151 -487 -153 q -507 -119 -489 -136 q -531 -129 -524 -122 q -541 -150 -538 -136 m -437 -123 q -427 -168 -427 -147 q -429 -186 -427 -178 q -457 -232 -436 -215 q -512 -249 -478 -249 q -616 -221 -587 -249 q -643 -143 -643 -194 q -607 -67 -643 -92 q -502 -41 -571 -41 q -386 -65 -426 -41 q -323 -117 -345 -89 q -280 -145 -301 -145 q -248 -48 -259 -145 l -119 -48 q -271 -230 -145 -230 q -367 -179 -330 -230 q -437 -123 -403 -128 z "},"ຽ":{"ha":712,"x_min":56,"x_max":598,"o":"m 212 -83 q 185 -98 195 -83 q 176 -130 176 -111 q 177 -138 176 -134 q 231 -185 179 -175 q 254 -139 254 -168 l 254 -138 q 242 -98 254 -113 q 212 -83 231 -83 m 528 -225 q 363 -285 470 -285 q 228 -277 277 -285 q 137 -251 179 -270 q 75 -207 94 -233 q 56 -136 56 -180 l 56 -132 q 92 -46 56 -82 q 171 -5 130 -9 q 193 -5 182 -5 q 237 -11 219 -5 q 283 -36 263 -20 q 317 -81 303 -52 q 327 -128 327 -102 q 326 -149 327 -138 q 302 -201 320 -187 q 403 -4 403 -201 l 403 423 q 229 556 403 482 q 56 686 56 629 q 75 744 56 724 q 116 772 93 764 q 176 780 139 780 q 293 754 214 780 q 388 728 373 728 q 403 779 403 728 l 598 779 l 598 743 q 578 677 598 704 q 528 642 559 650 q 494 637 513 637 q 457 641 477 637 q 370 663 416 648 q 273 692 324 676 q 188 709 220 708 l 182 709 q 151 696 155 709 l 151 694 q 180 674 151 681 q 260 654 212 667 q 363 625 307 642 q 469 583 420 607 q 558 530 517 559 q 598 465 598 501 l 598 0 q 528 -225 598 -155 z "},"ເ":{"ha":553,"x_min":114,"x_max":453,"o":"m 334 145 q 330 143 334 145 q 322 132 326 140 q 317 115 317 124 q 322 98 317 106 q 334 86 326 90 q 351 81 342 81 q 368 86 360 81 q 381 98 376 90 q 385 115 385 106 q 380 132 385 124 q 368 145 376 140 q 351 149 360 149 q 334 145 342 149 m 309 208 q 351 217 330 217 q 401 204 377 217 q 439 166 425 191 q 453 115 453 142 q 424 31 453 59 q 331 0 393 0 q 172 47 227 0 q 114 203 114 98 l 114 576 q 172 734 114 683 q 327 780 226 780 q 453 760 387 780 l 453 662 q 374 682 400 682 q 326 658 342 682 q 309 576 309 634 l 309 208 z "},"ແ":{"ha":1049,"x_min":114,"x_max":949,"o":"m 831 145 q 827 143 831 145 q 818 132 823 140 q 814 115 814 124 q 818 98 814 106 q 831 86 823 90 q 848 81 839 81 q 865 86 857 81 q 877 98 873 90 q 882 115 882 106 q 877 132 882 124 q 864 145 872 140 q 848 149 857 149 q 831 145 839 149 m 806 208 q 848 217 826 217 q 898 204 873 217 q 936 166 922 191 q 949 115 949 142 q 920 31 949 59 q 827 0 890 0 q 669 47 723 0 q 610 203 610 98 l 610 576 q 669 734 610 683 q 823 780 722 780 q 949 760 883 780 l 949 662 q 871 682 897 682 q 822 658 838 682 q 806 576 806 634 l 806 208 m 334 145 q 330 143 334 145 q 322 132 326 140 q 317 115 317 124 q 322 98 317 106 q 334 86 326 90 q 351 81 342 81 q 368 86 360 81 q 381 98 376 90 q 385 115 385 106 q 380 132 385 124 q 368 145 376 140 q 351 149 360 149 q 334 145 342 149 m 309 208 q 351 217 330 217 q 401 204 377 217 q 439 166 425 191 q 453 115 453 142 q 424 31 453 59 q 331 0 393 0 q 172 47 227 0 q 114 203 114 98 l 114 576 q 172 734 114 683 q 327 780 226 780 q 453 760 387 780 l 453 662 q 374 682 400 682 q 326 658 342 682 q 309 576 309 634 l 309 208 z "},"ໂ":{"ha":543,"x_min":6,"x_max":487,"o":"m 322 132 q 320 128 322 132 q 317 115 317 124 q 322 98 317 106 q 334 86 326 90 q 351 81 342 81 q 368 86 360 81 q 381 98 376 90 q 385 115 385 106 q 380 132 385 124 q 368 145 376 140 q 351 149 360 149 q 334 145 342 149 q 322 132 326 140 m 114 576 q 259 783 114 699 l 56 962 q 6 1068 11 1002 l 6 1073 q 34 1157 6 1122 q 124 1202 75 1199 q 139 1203 132 1203 q 239 1168 199 1203 l 311 1106 q 474 1008 420 1008 q 487 1010 481 1008 l 487 935 q 425 924 454 924 q 395 927 410 924 q 232 1051 355 936 q 191 1072 210 1072 q 155 1050 172 1072 q 149 1034 149 1042 q 175 994 149 1016 l 415 781 l 418 780 q 417 779 418 779 l 418 778 l 416 778 q 319 677 330 721 q 309 576 309 633 l 309 208 q 351 217 330 217 q 401 204 377 217 q 439 166 425 191 q 453 115 453 142 q 424 31 453 59 q 331 0 393 0 q 172 47 227 0 q 114 203 114 98 l 114 576 z "},"ໃ":{"ha":642,"x_min":0,"x_max":543,"o":"m 377 132 q 375 128 377 132 q 373 115 373 124 q 377 98 373 106 q 390 86 382 90 q 407 81 398 81 q 424 86 416 81 q 436 98 432 90 q 441 115 441 106 q 436 132 441 124 q 424 145 431 140 q 407 149 416 149 q 390 145 398 149 q 377 132 382 140 m 170 625 q 277 811 170 718 q 384 983 384 905 q 346 1088 384 1053 q 272 1124 309 1124 q 192 1092 218 1124 q 165 1025 165 1060 q 193 938 165 938 q 235 983 220 938 l 300 933 q 174 852 238 852 q 154 854 164 852 q 86 876 115 857 q 36 919 57 895 q 8 971 16 944 q 0 1025 0 998 q 65 1154 0 1101 q 272 1210 133 1210 q 477 1151 410 1210 q 543 983 543 1095 q 454 783 543 880 q 365 625 365 686 l 365 208 q 407 217 385 217 q 457 204 433 217 q 495 166 481 191 q 509 115 509 142 q 479 31 509 59 q 387 0 449 0 q 228 47 282 0 q 170 203 170 98 l 170 625 z "},"ໄ":{"ha":581,"x_min":6,"x_max":487,"o":"m 322 132 q 320 128 322 132 q 317 115 317 124 q 322 98 317 106 q 334 86 326 90 q 351 81 342 81 q 368 86 360 81 q 381 98 376 90 q 385 115 385 106 q 380 132 385 124 q 368 145 376 140 q 351 149 360 149 q 334 145 342 149 q 322 132 326 140 m 114 576 q 215 706 114 648 q 326 773 316 764 q 336 793 336 783 q 328 808 336 804 q 313 812 321 812 q 281 801 297 812 q 243 790 264 790 q 180 818 203 790 q 140 912 156 846 q 90 1058 112 1021 q 6 1147 68 1095 l 106 1214 q 175 1147 145 1185 q 216 1086 204 1109 q 231 1054 228 1063 q 242 1016 235 1044 q 255 968 250 991 q 264 932 260 945 q 274 910 268 920 q 292 901 280 901 q 323 909 307 901 q 374 917 339 917 q 448 892 408 917 q 487 822 487 868 q 398 694 487 756 q 309 576 309 633 l 309 208 q 351 217 330 217 q 401 204 377 217 q 439 166 425 191 q 453 115 453 142 q 424 31 453 59 q 331 0 393 0 q 172 47 227 0 q 114 203 114 98 l 114 576 z "},"ໆ":{"ha":892,"x_min":100,"x_max":778,"o":"m 308 493 q 281 540 308 540 q 255 493 255 540 q 281 446 255 446 q 308 493 308 446 m 149 727 q 173 754 149 727 q 266 780 197 780 q 323 765 296 780 q 382 731 351 751 q 435 712 411 712 l 437 712 q 492 732 460 713 q 546 766 524 751 q 606 780 567 780 q 778 543 778 780 l 778 -34 q 469 -285 778 -285 q 386 -276 434 -285 q 297 -247 337 -267 q 224 -203 258 -228 q 159 -151 191 -178 l 298 -54 q 382 -166 356 -134 q 469 -199 408 -199 q 589 -34 589 -199 l 589 543 q 574 682 585 682 q 519 649 564 682 q 438 618 477 618 q 433 618 435 618 q 347 651 391 621 q 298 682 303 682 q 279 654 294 682 q 265 606 265 628 l 265 595 q 292 597 279 597 q 342 586 318 597 q 378 507 378 569 q 254 384 372 385 q 100 561 100 388 q 149 727 100 675 z "},"່":{"ha":0,"x_min":-420,"x_max":-288,"o":"m -420 1413 l -288 1413 l -288 1153 l -420 1153 l -420 1413 z "},"້":{"ha":0,"x_min":-617,"x_max":-96,"o":"m -452 1329 q -448 1347 -448 1339 q -450 1356 -448 1352 q -473 1371 -458 1371 l -479 1371 q -492 1350 -492 1367 q -493 1348 -493 1348 q -482 1329 -493 1332 q -463 1328 -473 1328 q -452 1329 -458 1328 m -488 1286 q -544 1305 -524 1291 q -566 1350 -566 1322 l -566 1355 q -533 1405 -563 1386 q -477 1419 -509 1419 q -463 1419 -470 1419 q -366 1390 -380 1415 q -352 1336 -352 1369 l -352 1331 q -406 1244 -353 1294 q -309 1291 -353 1250 q -238 1399 -266 1331 l -96 1363 q -178 1257 -137 1291 q -281 1202 -220 1224 q -472 1180 -343 1180 l -617 1180 l -617 1234 q -488 1286 -525 1250 z "},"໊":{"ha":0,"x_min":-640,"x_max":7,"o":"m -507 1163 q -517 1160 -512 1162 q -611 1216 -583 1184 q -640 1290 -640 1249 q -623 1343 -640 1320 q -588 1383 -606 1367 q -546 1410 -570 1400 q -486 1419 -522 1419 q -448 1413 -468 1419 q -404 1385 -429 1406 q -368 1354 -378 1364 q -316 1393 -342 1373 q -250 1419 -290 1413 q -190 1408 -218 1419 q -145 1380 -161 1397 q -121 1348 -130 1364 q -113 1312 -113 1333 l -113 1307 q -83 1355 -90 1336 q -64 1411 -76 1373 q -21 1401 -37 1410 q 6 1375 -5 1392 q 7 1369 7 1372 q -12 1301 7 1331 q -63 1243 -33 1266 q -133 1196 -94 1219 q -216 1165 -172 1173 q -223 1166 -220 1166 l -262 1214 q -227 1248 -239 1227 q -214 1287 -215 1268 q -226 1326 -214 1308 q -257 1345 -238 1345 q -314 1299 -276 1345 q -370 1254 -353 1254 q -425 1299 -387 1254 q -479 1343 -463 1343 q -509 1322 -496 1343 q -522 1278 -522 1301 q -508 1242 -522 1260 q -475 1215 -494 1225 l -507 1163 z "},"໋":{"ha":0,"x_min":-479,"x_max":-174,"o":"m -389 1153 l -389 1241 l -479 1241 l -479 1322 l -389 1322 l -389 1411 l -264 1411 l -264 1322 l -174 1322 l -174 1241 l -264 1241 l -264 1153 l -389 1153 z "},"໌":{"ha":0,"x_min":-488,"x_max":-109,"o":"m -487 1236 q -488 1252 -488 1245 q -473 1299 -488 1280 q -425 1333 -454 1324 q -376 1339 -407 1339 q -337 1337 -358 1339 q -314 1336 -326 1336 q -254 1354 -288 1336 q -200 1414 -220 1372 l -109 1348 q -168 1289 -131 1309 q -262 1271 -202 1271 l -272 1271 q -271 1255 -271 1264 q -274 1223 -271 1242 q -306 1177 -281 1194 q -376 1160 -331 1160 q -452 1179 -422 1160 q -487 1236 -481 1199 m -393 1247 q -383 1232 -392 1238 q -368 1227 -376 1227 l -363 1227 q -345 1238 -351 1230 q -340 1252 -340 1244 q -341 1257 -340 1255 q -352 1273 -343 1267 q -366 1277 -359 1277 l -372 1277 q -389 1267 -383 1275 q -394 1252 -394 1260 q -393 1247 -394 1250 z "},"ໍ":{"ha":0,"x_min":-503,"x_max":-198,"o":"m -351 1332 q -367 1325 -359 1332 q -380 1308 -375 1319 q -385 1283 -385 1296 q -380 1258 -385 1270 q -367 1240 -375 1246 q -351 1234 -359 1234 q -334 1240 -342 1234 q -321 1258 -326 1246 q -317 1283 -317 1270 q -321 1308 -317 1296 q -334 1325 -326 1319 q -351 1332 -342 1332 m -351 1406 q -276 1390 -312 1406 q -219 1344 -239 1374 q -198 1283 -198 1315 q -218 1221 -198 1251 q -274 1176 -237 1192 q -351 1160 -311 1160 q -426 1176 -389 1160 q -483 1221 -463 1192 q -503 1283 -503 1251 q -483 1344 -503 1315 q -425 1390 -462 1374 q -351 1406 -389 1406 z "},"໐":{"ha":878,"x_min":100,"x_max":778,"o":"m 439 682 q 331 609 367 682 q 295 390 295 536 q 331 171 295 244 q 439 98 367 98 q 547 171 511 98 q 583 390 583 244 q 547 609 583 536 q 439 682 511 682 m 439 0 q 193 98 286 0 q 100 390 100 195 q 193 683 100 585 q 439 780 286 780 q 685 683 591 780 q 778 390 778 585 q 685 98 778 195 q 439 0 591 0 z "},"໑":{"ha":945,"x_min":100,"x_max":846,"o":"m 510 441 q 499 478 510 463 q 474 493 488 493 q 448 478 458 493 q 437 441 437 463 q 448 405 437 419 q 474 391 458 391 q 499 405 488 391 q 510 441 510 419 m 719 119 q 655 68 719 119 q 370 0 592 17 l 315 68 q 590 187 524 96 q 657 407 657 278 q 611 616 657 551 q 450 682 566 682 q 343 642 391 682 q 295 519 295 602 q 325 400 295 429 q 393 365 355 370 q 352 414 359 387 q 345 453 345 441 q 366 520 350 496 q 408 561 382 545 q 464 577 434 577 q 524 561 494 577 q 576 512 555 545 q 598 437 598 479 q 575 355 598 387 q 524 304 551 323 q 474 279 496 286 q 410 269 451 272 q 397 268 404 268 q 275 283 326 268 q 174 337 214 302 q 117 418 134 372 q 100 513 100 464 q 183 707 100 635 q 450 780 267 780 q 751 691 656 780 q 846 407 846 602 q 719 119 846 221 z "},"໒":{"ha":840,"x_min":100,"x_max":785,"o":"m 785 905 q 506 645 717 785 q 295 367 295 505 q 305 262 295 309 q 363 157 315 216 q 469 98 410 98 q 552 107 516 98 q 511 152 521 138 q 495 180 501 165 q 488 207 488 195 q 504 272 488 248 q 543 311 519 297 q 594 330 567 325 q 633 332 614 332 l 644 332 q 699 319 675 331 q 741 289 724 307 q 767 248 758 271 q 777 203 777 225 q 775 160 777 176 q 761 117 773 143 q 689 45 748 91 q 590 8 626 16 q 469 0 553 0 q 198 93 296 0 q 100 367 100 186 q 117 482 100 433 q 195 583 134 530 q 422 731 256 635 q 651 872 598 830 q 758 989 704 914 l 785 905 m 689 200 q 673 236 689 221 q 637 250 658 250 q 600 236 615 250 q 585 200 585 221 q 600 166 585 180 q 637 151 615 151 q 673 166 658 151 q 689 200 689 180 z "},"໓":{"ha":1013,"x_min":56,"x_max":939,"o":"m 165 107 q 207 149 207 107 q 165 191 207 191 q 123 149 123 191 q 165 107 123 107 m 737 697 q 685 768 737 726 q 530 854 633 810 q 400 937 428 898 q 372 1015 372 975 q 402 1093 372 1067 q 477 1118 433 1118 q 637 1080 561 1118 l 939 937 l 890 864 l 604 1002 q 556 1016 581 1016 q 538 1005 545 1016 q 532 987 532 994 q 542 962 532 975 q 567 939 552 949 l 820 829 q 932 694 909 787 l 932 258 q 838 64 932 129 q 610 0 743 0 q 400 64 485 0 l 399 65 q 231 0 347 0 q 56 149 56 0 q 165 259 56 259 q 281 151 275 259 l 281 780 l 477 780 l 477 258 q 509 136 477 174 q 610 98 542 98 q 708 136 679 98 q 737 258 737 174 l 737 697 z "},"໔":{"ha":952,"x_min":100,"x_max":852,"o":"m 738 422 q 702 385 702 422 q 738 341 702 341 q 780 385 780 341 q 738 422 780 422 m 733 66 q 771 96 771 66 q 728 127 771 127 l 726 127 q 702 125 710 127 l 702 123 q 733 66 702 66 m 800 938 q 791 913 797 926 q 762 863 780 888 q 721 816 745 838 q 507 693 697 795 q 306 527 317 591 q 295 339 295 463 q 305 180 295 261 q 351 98 315 98 q 430 127 395 98 q 507 196 464 157 l 507 385 q 725 504 507 504 q 852 385 852 504 q 725 267 852 267 q 702 269 710 267 l 702 197 q 726 199 711 199 q 836 99 836 199 q 733 0 836 0 q 507 85 570 0 q 429 23 463 45 q 349 0 395 0 q 144 95 189 0 q 100 339 100 189 q 113 516 100 463 q 159 629 126 572 q 260 720 193 686 l 613 865 q 645 887 631 874 q 670 915 659 900 q 689 942 682 929 q 701 963 697 956 q 720 987 710 978 l 800 938 z "},"໕":{"ha":952,"x_min":100,"x_max":852,"o":"m 562 864 q 547 899 562 885 q 509 913 532 913 q 473 899 488 913 q 457 864 457 885 q 529 818 465 819 q 562 864 562 836 m 738 422 q 702 385 702 422 q 738 341 702 341 q 780 385 780 341 q 738 422 780 422 m 733 66 q 771 96 771 66 q 728 127 771 127 l 726 127 q 702 125 710 127 l 702 123 q 733 66 702 66 m 823 951 q 794 872 823 932 q 716 778 766 813 q 562 742 667 742 q 499 692 553 714 q 321 542 348 622 q 295 339 295 463 q 305 180 295 261 q 351 98 315 98 q 430 127 395 98 q 507 196 464 157 l 507 385 q 725 504 507 504 q 852 385 852 504 q 725 267 852 267 q 702 269 710 267 l 702 197 q 726 199 711 199 q 836 99 836 199 q 733 0 836 0 q 507 85 570 0 q 429 23 463 45 q 349 0 395 0 q 144 95 189 0 q 100 339 100 189 q 113 516 100 463 q 196 640 126 572 q 444 764 267 708 q 399 790 416 772 q 374 826 383 807 q 363 863 365 844 q 362 878 362 871 q 363 890 362 885 q 383 940 368 920 q 418 971 398 960 q 462 989 438 983 q 508 995 486 995 q 588 976 559 995 q 630 933 617 957 q 647 888 644 909 l 647 881 q 633 826 647 861 q 698 878 669 837 q 726 946 726 916 l 726 953 q 731 979 726 970 l 823 953 l 823 951 z "},"໖":{"ha":1006,"x_min":114,"x_max":892,"o":"m 482 346 q 502 283 482 318 q 522 346 522 318 q 518 397 522 378 q 502 417 514 417 q 486 397 490 417 q 482 346 482 378 m 398 586 q 347 561 372 561 q 309 572 321 561 l 309 246 q 329 98 309 106 q 373 108 357 98 q 414 144 389 118 q 463 220 438 171 q 432 280 444 251 q 417 359 421 309 l 417 372 q 441 454 417 424 q 502 483 464 483 q 563 454 540 483 q 587 372 587 424 l 587 359 q 571 280 583 309 q 541 220 560 251 q 590 144 566 171 q 631 108 614 118 q 675 98 647 98 q 694 246 694 106 l 694 631 q 619 747 694 672 q 526 845 544 822 q 504 883 508 869 q 500 914 500 898 q 525 977 500 949 q 593 1004 551 1004 q 699 977 638 1004 q 892 880 760 949 l 845 812 l 692 899 q 646 917 661 917 q 629 910 635 917 q 623 897 623 903 q 632 873 623 885 q 656 852 642 861 l 827 728 q 890 629 869 701 l 890 246 q 669 0 890 11 q 591 31 633 0 q 531 85 549 61 q 509 120 518 102 l 502 132 l 495 120 q 473 85 486 102 q 413 31 454 61 q 335 0 371 0 q 114 246 114 11 l 114 576 q 172 745 114 696 q 309 780 211 779 q 397 752 368 779 q 427 671 427 725 q 398 586 427 613 m 292 708 q 281 671 281 696 q 318 625 281 625 q 345 635 336 625 q 355 671 355 646 q 345 706 355 694 q 318 717 336 717 q 292 708 302 717 z "},"໗":{"ha":1015,"x_min":56,"x_max":937,"o":"m 185 181 q 134 130 134 181 q 185 79 134 79 q 237 130 237 79 q 185 181 237 181 m 231 607 l 231 623 q 182 703 231 703 q 134 654 134 703 q 211 606 134 606 q 231 607 221 606 m 231 529 l 212 529 q 90 565 128 529 q 56 654 56 596 q 89 749 56 718 q 185 780 121 780 q 418 684 390 780 q 644 780 494 780 q 834 730 768 780 q 901 563 901 681 l 901 -115 q 937 -210 901 -170 l 778 -271 q 705 -129 705 -203 l 705 563 q 671 653 705 623 q 578 682 636 682 q 448 599 514 682 l 426 566 l 426 176 q 378 39 426 83 q 185 0 335 0 q 84 37 116 0 q 56 130 56 69 q 84 222 56 191 q 185 259 117 259 q 231 254 210 259 l 231 529 z "},"໘":{"ha":940,"x_min":114,"x_max":826,"o":"m 602 -286 q 609 -307 602 -296 q 632 -322 617 -317 q 662 -328 646 -328 q 691 -322 677 -328 q 713 -307 705 -317 q 722 -286 722 -296 q 713 -265 722 -275 q 691 -249 705 -254 q 662 -244 677 -244 q 632 -249 646 -244 q 609 -265 617 -254 q 602 -286 602 -275 m 401 89 q 416 130 416 102 q 404 167 416 154 q 365 181 391 181 q 313 130 313 181 q 332 87 313 99 q 365 79 344 79 q 401 89 388 79 m 826 -109 q 762 -181 804 -152 l 735 -195 q 759 -201 750 -198 q 809 -238 793 -214 q 826 -290 826 -263 q 810 -341 826 -317 q 760 -379 794 -366 q 655 -393 726 -393 q 584 -379 618 -393 q 532 -341 551 -366 q 513 -290 513 -317 l 513 -284 q 473 -306 493 -293 q 294 -366 380 -366 q 163 -330 204 -366 q 122 -244 122 -294 q 369 -85 122 -149 l 631 -16 l 631 522 q 602 682 631 682 q 470 558 572 682 q 338 682 368 682 q 309 522 309 682 l 309 239 q 382 259 340 259 q 455 227 422 259 q 487 129 487 194 q 454 32 487 64 q 331 0 422 0 q 185 35 236 0 q 114 200 114 83 l 114 522 q 176 724 114 668 q 322 780 239 780 q 470 683 408 780 q 618 780 532 780 q 764 723 702 780 q 826 522 826 666 l 826 -109 m 631 -94 l 478 -135 l 393 -159 q 288 -231 288 -201 q 305 -259 288 -255 q 340 -263 322 -263 q 519 -193 374 -263 q 631 -135 594 -157 l 631 -94 z "},"໙":{"ha":1157,"x_min":114,"x_max":1043,"o":"m 1043 780 l 1043 233 q 782 0 1043 0 q 521 233 521 0 l 521 532 q 415 682 521 682 q 309 532 309 682 l 309 234 q 351 247 330 247 q 396 237 372 247 q 436 206 420 227 q 459 161 453 185 q 463 120 463 143 q 463 102 463 111 q 445 48 458 68 q 411 18 431 28 q 374 5 392 8 q 332 1 357 1 q 149 80 184 5 q 114 221 114 155 l 114 532 q 415 780 114 780 q 716 532 716 780 l 716 233 q 782 98 716 98 q 848 233 848 98 l 848 780 l 1043 780 m 388 131 q 351 168 387 165 q 302 128 307 165 q 351 79 307 83 q 388 131 385 83 z "},"ໜ":{"ha":1645,"x_min":100,"x_max":1531,"o":"m 210 612 q 252 656 252 612 q 210 699 252 699 q 169 656 169 699 q 210 612 169 612 m 583 607 l 583 623 q 554 703 583 703 q 527 654 527 703 q 563 606 527 606 q 583 607 573 606 m 949 563 q 931 660 949 637 q 883 682 913 682 q 778 566 846 682 l 778 258 q 439 0 778 0 q 100 246 100 0 q 176 472 100 367 q 218 539 201 507 q 126 572 156 540 q 100 656 100 602 q 128 747 100 716 q 220 780 158 780 q 357 747 323 780 q 389 656 389 716 q 342 447 389 556 q 295 246 295 337 q 439 98 295 98 q 583 258 583 98 l 583 529 l 564 529 q 488 563 521 529 q 455 654 455 596 q 498 749 455 718 q 612 780 541 780 q 770 684 742 780 q 928 780 825 780 q 1072 734 1012 780 q 1144 563 1144 681 l 1144 237 q 1138 171 1144 201 q 1216 129 1177 168 q 1280 98 1255 98 q 1335 217 1335 98 l 1335 780 l 1531 780 l 1531 217 q 1274 0 1531 0 q 1159 72 1225 0 q 1111 98 1137 96 q 831 0 1051 0 l 831 98 q 916 133 884 98 q 949 237 949 168 l 949 563 z "},"ໝ":{"ha":1692,"x_min":100,"x_max":1578,"o":"m 210 612 q 252 656 252 612 q 210 699 252 699 q 169 656 169 699 q 210 612 169 612 m 963 174 q 927 125 927 174 q 954 77 927 77 q 983 157 983 77 l 983 173 q 963 174 973 174 m 583 607 l 583 623 q 554 703 583 703 q 527 654 527 703 q 563 606 527 606 q 583 607 573 606 m 983 563 q 955 660 983 637 q 890 682 927 682 q 800 599 866 682 l 778 566 l 778 258 q 439 0 778 0 q 100 246 100 0 q 176 472 100 367 q 218 539 201 507 q 126 572 156 540 q 100 656 100 602 q 128 747 100 716 q 220 780 158 780 q 357 747 323 780 q 389 656 389 716 q 342 447 389 556 q 295 246 295 337 q 439 98 295 98 q 583 258 583 98 l 583 529 l 564 529 q 488 563 521 529 q 455 654 455 596 q 498 749 455 718 q 612 780 541 780 q 770 684 742 780 q 935 780 846 780 q 1106 734 1046 780 q 1178 563 1178 681 l 1178 214 l 1200 181 q 1310 98 1266 98 q 1362 127 1341 98 q 1383 217 1383 157 l 1383 780 l 1578 780 l 1578 217 q 1506 45 1578 99 q 1362 0 1446 0 q 1171 96 1246 0 q 958 0 1142 0 q 881 31 914 0 q 848 125 848 62 q 885 217 848 184 q 964 251 921 251 l 983 251 l 983 563 z "}}}
